<svg xmlns="http://www.w3.org/2000/svg" width="370.245" height="370.244" viewBox="0 0 370.245 370.244"><path d="M339.988 118.771c-5.508-4.284-11.628-3.06-17.748 0-.612-.612-.612-1.836-1.224-2.448-3.062-6.12-10.404-9.18-16.524-6.12-13.464 7.344.612 29.376 8.568 35.496 0 0 .611 0 .611.612-2.447 7.344-5.509 14.076-10.403 20.808-1.225 1.836-3.062 3.672-4.896 5.508-8.566-6.732-18.358-11.628-29.376-14.688 16.524-11.016 17.748-36.108 8.568-53.244-7.344-14.076-19.584-22.644-33.66-26.928 7.956-15.3 20.808-26.928 36.107-37.332 0 .612.611 1.224 1.225 1.836 9.792 11.016 31.824 12.852 36.107-4.896 1.837-6.732-2.447-13.464-8.567-15.912-2.448-.612-5.508-1.224-7.956-1.224 3.06-8.568 3.06-17.748-6.732-19.584-14.074-3.06-20.808 19.584-17.136 29.988 0 .612 1.226 1.836 1.836 1.836-18.358 7.344-32.436 23.868-40.392 42.84l-11.017-1.836c.611-1.836.611-3.672-.611-5.508-16.524-18.36-16.524-42.228.611-59.976 2.447-2.448 1.225-8.568-3.061-7.956-59.976 7.956-105.876 58.14-99.756 119.952.612 3.06 4.896 3.672 4.896 0 .612-52.02 33.048-96.084 83.232-107.712-12.24 19.584-10.404 43.452 5.508 61.812-3.672 0-7.344.612-10.403 1.224-3.673.612-2.447 6.12.611 6.12 8.568.612 17.748 1.224 26.316 3.672-1.226 4.896-2.448 9.792-3.062 14.688-.611 2.448 3.672 3.06 4.284.612 1.225-4.896 2.448-9.18 4.284-13.464 8.567 3.06 16.523 7.344 23.256 14.688 15.3 17.136 12.24 37.944-1.224 53.856-12.24-3.06-25.093-4.896-36.108-4.896-3.672 0-3.672 5.508 0 6.12 19.584 2.448 48.348 7.956 66.096 22.032-4.896 3.672-10.402 7.344-15.911 9.792-1.837 1.224-.611 4.284 1.836 3.672 6.12-1.836 12.853-5.508 18.359-9.792 7.956 7.956 12.854 18.359 11.628 31.824-3.06 39.779-61.812 41.615-89.352 44.062-12.853 1.226-25.092 1.226-37.944 1.226-1.224-1.837-3.672-1.837-4.896 0-11.628 0-23.256 0-34.884-.612s-24.48 0-36.108-1.225c-3.06 0-5.508 0-8.568-.611-.612-1.836-2.448-1.836-3.672-.612-16.524-4.283-23.256-18.972-19.584-43.451 7.344-10.403 16.524-16.523 28.152-17.748 1.224 0 1.224-2.447-.612-2.447-6.732-.612-12.852 0-18.36 2.447v-1.225c-3.06-14.076 0-25.704 6.732-35.496 10.404 9.18 22.644 15.912 36.108 20.808 3.672 1.224 4.896-3.672 2.448-6.12-10.404-7.956-20.808-15.3-29.988-23.868 5.508-4.896 12.24-9.18 20.196-12.24 20.808-8.568 40.392-6.732 61.812-3.06 3.06.612 6.121-4.284 2.448-6.12-25.704-11.628-66.708-5.508-90.576 14.688-1.836-1.836-3.06-3.672-4.284-5.508-9.18-12.24-11.628-26.316-17.748-39.78 3.672-3.672 7.344-8.568 9.18-12.852 3.672-6.732 4.896-15.912-1.224-21.42-6.732-5.508-15.3-3.06-20.808 3.06-1.836 2.448-3.672 4.896-4.896 7.956-2.448-1.836-5.508-3.06-7.956-4.284-7.956-2.448-17.136 1.836-18.36 11.016-1.224 15.912 18.972 22.644 32.436 21.42 0 14.688 9.18 30.6 18.36 41.616 2.448 3.06 4.896 5.508 7.344 7.956-8.568 11.628-11.628 26.316-5.508 43.453 0 .611.612 1.225 1.224 1.836-17.136 9.792-24.48 33.049-11.016 52.021 6.12 9.18 15.3 13.464 25.092 15.912 3.06 18.359 6.732 36.72 12.24 55.08 3.672 11.016 6.732 29.987 15.912 38.556 15.3 15.3 52.632 11.017 71.604 11.017 22.032 0 47.735 4.283 62.424-14.688 20.808-27.54 31.824-67.932 39.168-101.592v-.612c12.854-6.73 22.646-17.748 24.48-34.884 1.836-17.748-3.673-31.212-14.076-41.004 8.566-7.956 15.3-17.748 18.358-28.764h1.226c6.12-1.836 14.688-6.12 18.358-11.016 3.066-6.123 2.454-14.079-3.054-18.363zM115.384 321.955c-8.568-17.137-12.24-37.944-17.136-56.305 6.12.611 12.24 1.225 18.36 1.225 3.672 28.151 12.24 56.916 23.256 83.231-9.18-5.507-17.748-14.075-24.48-28.151zm30.6 30.6c-7.956-28.15-15.3-56.916-23.256-85.066 7.956.61 15.912.61 23.256.61-1.224 28.765 6.732 61.2 15.3 88.74-5.508-1.224-10.404-2.448-15.3-4.284zm19.584 4.284c-4.896-29.376-7.344-60.588-14.688-89.352 7.956 0 15.3 0 23.256.61 0 29.376 3.06 60.588 7.956 89.354-5.509.611-11.016 0-16.524-.612zm41.004-88.128c-3.061 28.764-1.836 59.364-2.448 89.352h-18.359c1.225-29.375-.611-60.588-4.283-89.964 8.567 0 17.136 0 25.092-.61-.002.61-.002.61-.002 1.222zm2.448 88.74c3.06-29.376 6.73-59.978 4.284-89.354 0-.61 0-1.224-.612-1.224 3.672 0 7.344 0 10.403-.612 6.12-.61 12.853-1.224 20.195-1.836-7.956 30.602-17.748 61.2-24.479 92.412-3.06.614-6.731.614-9.791.614zm50.796-37.332c-3.672 7.344-9.792 22.644-15.912 28.15-4.896 4.896-12.853 6.732-20.809 7.956 13.465-29.376 22.031-61.812 29.987-93.022 9.792-1.226 20.196-3.672 29.376-6.732-5.506 22.032-12.85 43.452-22.642 63.648z"/></svg>